<svg width="37" height="36" viewBox="0 0 37 36" fill="none" xmlns="http://www.w3.org/2000/svg">
<rect x="0.405465" y="0.391304" width="35.2174" height="35.2174" rx="17.6087" fill="white" fill-opacity="0.05" stroke="white" stroke-width="0.782609"/>
<path d="M23.8767 14.3723L25.0395 13.255V13.0103H21.0124L18.1423 20.1883L14.8777 13.0103H10.6552V13.255L12.0134 14.8978C12.1462 15.0192 12.2145 15.1975 12.1974 15.3758V21.831C12.2391 22.0643 12.1651 22.3015 12.002 22.4703L10.4712 24.335V24.5759H14.8076V24.3312L13.2786 22.4722C13.1967 22.389 13.1351 22.2881 13.0986 22.1772C13.0621 22.0663 13.0516 21.9485 13.0681 21.8329V16.2484L16.8752 24.5797H17.3172L20.5913 16.2484V22.8857C20.5913 23.0602 20.5913 23.0963 20.4774 23.212L19.2995 24.3558V24.6005H25.013V24.3558L23.8767 23.2385C23.7781 23.1627 23.7269 23.0356 23.7477 22.9123V14.6986C23.7379 14.6376 23.7447 14.5752 23.7674 14.5177C23.7901 14.4603 23.8279 14.4101 23.8767 14.3723Z" fill="white"/>
</svg>
