<svg width="36" height="36" viewBox="0 0 36 36" fill="none" xmlns="http://www.w3.org/2000/svg">
<rect x="0.391304" y="0.391304" width="35.2174" height="35.2174" rx="17.6087" fill="white" fill-opacity="0.05" stroke="white" stroke-width="0.782609"/>
<g clip-path="url(#clip0_144_559)">
<path d="M28.0239 10.6579C28.0424 10.5467 28.0315 10.4326 27.9923 10.3269C27.9532 10.2211 27.8871 10.1275 27.8006 10.0551C27.7142 9.98279 27.6103 9.93428 27.4993 9.9144C27.3883 9.89452 27.2741 9.90397 27.1679 9.94179L9.03841 16.4166C8.9189 16.4592 8.81455 16.536 8.73832 16.6374C8.66209 16.7388 8.61733 16.8604 8.6096 16.9871C8.60187 17.1137 8.63152 17.2398 8.69487 17.3497C8.75821 17.4597 8.85245 17.5486 8.96589 17.6054L14.1457 20.1953C14.2478 20.2464 14.3616 20.2696 14.4755 20.2626C14.5895 20.2555 14.6995 20.2185 14.7945 20.1552L19.0938 17.2881L16.5207 20.5074C16.4647 20.5775 16.4239 20.6584 16.4008 20.7451C16.3778 20.8318 16.3729 20.9223 16.3867 21.0109C16.4005 21.0996 16.4325 21.1844 16.4807 21.26C16.529 21.3356 16.5924 21.4003 16.667 21.4501L24.4368 26.63C24.5268 26.6898 24.6303 26.7262 24.7379 26.7358C24.8455 26.7453 24.9538 26.7278 25.053 26.6848C25.1521 26.6418 25.2389 26.5747 25.3054 26.4896C25.372 26.4045 25.4161 26.3041 25.4339 26.1975L28.0239 10.6579Z" fill="white"/>
</g>
<defs>
<clipPath id="clip0_144_559">
<rect width="19.4245" height="19.4245" fill="white" transform="translate(8.6084 8.60886)"/>
</clipPath>
</defs>
</svg>
