<svg width="37" height="36" viewBox="0 0 37 36" fill="none" xmlns="http://www.w3.org/2000/svg">
<rect x="0.420113" y="0.391304" width="35.2174" height="35.2174" rx="17.6087" fill="white" fill-opacity="0.05" stroke="white" stroke-width="0.782609"/>
<path d="M27.7727 12.6051C27.0969 12.9045 26.3709 13.1069 25.6076 13.1983C26.3951 12.7271 26.9843 11.9855 27.2652 11.1118C26.5253 11.5513 25.7156 11.8606 24.8711 12.0264C24.3033 11.4201 23.5511 11.0182 22.7315 10.8832C21.9118 10.7481 21.0705 10.8875 20.3381 11.2796C19.6058 11.6717 19.0234 12.2946 18.6813 13.0516C18.3393 13.8086 18.2567 14.6574 18.4465 15.4661C16.9473 15.3909 15.4807 15.0012 14.1419 14.3225C12.8031 13.6437 11.6219 12.691 10.6751 11.5262C10.3514 12.0847 10.1652 12.7321 10.1652 13.4217C10.1648 14.0425 10.3177 14.6537 10.6102 15.2013C10.9028 15.7488 11.3259 16.2156 11.8422 16.5604C11.2435 16.5413 10.658 16.3796 10.1344 16.0885V16.1371C10.1344 17.0077 10.4356 17.8516 10.9868 18.5255C11.5381 19.1994 12.3056 19.6618 13.159 19.8342C12.6036 19.9845 12.0213 20.0067 11.4561 19.899C11.6969 20.6481 12.1659 21.3032 12.7975 21.7726C13.4291 22.2419 14.1917 22.502 14.9784 22.5164C13.6429 23.5649 11.9934 24.1336 10.2955 24.1311C9.99474 24.1312 9.69422 24.1136 9.39551 24.0785C11.119 25.1866 13.1253 25.7747 15.1743 25.7724C22.1104 25.7724 25.9023 20.0277 25.9023 15.0453C25.9023 14.8834 25.8982 14.7199 25.8909 14.558C26.6285 14.0247 27.2651 13.3642 27.771 12.6075L27.7727 12.6051Z" fill="white"/>
</svg>
